<svg id="Calque_1" xmlns="http://www.w3.org/2000/svg" viewBox="0 0 523.4 133.2"><style>.st0,.st1{fill:#47372b}.st1{stroke:#47372b;stroke-miterlimit:10}.st2{fill:#819288}.st3{fill:#fcf6dd}.st4{fill:#c15017}.st5{fill:#f4edc3}.st6{fill:#6b6927}.st7{fill:#d9cea8}.st8{fill:#545122}</style><path class="st0" d="M102.5 93.2l-.1-1.1v-1.2l-.1-1v-1.3l-.1-1.1.1-1 .2-1.2-.1-1.1.1-1-.3-1.1.1-1.2-.1-1.1v-1l.1-1.1-.1-1.1.1-1.2.2-1.2-.2-1.1v-1l.2-1.1-.2-1.2.2-1-.3-1.2.1-1.1.2-1v-2.4l-.1-1.1v-1l-.1-1.2.2-1-.1-1.1-.2-1.2.1-1.1.2-1.1-.3-1.1.2-1 .1-1.2-.1-1.2-.1-1 .1-1.1v-1.2l.1-1.1-.2-1.1-.1-1 .2-1.1-.2-1.1.2-1.2v-1l-.1-1.2.2-1.1-.2-1.2.2-1-.1-1.2v-1.1l.9-1 1.3-.1h2.4l1.1.1h.8l1.3-.1 1.2.1h.9l1-.1 1.2.1 1.4-.1.8.1h2.5l.9-.1h4.4l1.3.1h1.1l2-.1 1.3.1h1.1l1.1.1 2.1.4.9.3 1.1.1 1.1.4 2 .6 1.4.6.8.3 1.1.6.8.6.9.4.9.6.9.6 1 .7.8.6.9.8.6.7.8.7.6.8.6.7.8.9.6 1 .4.9.6.8.9 2 .4.9.5 1 .3 1.1.4 1 .3 1 .3 1 .4 1.1.1 1.1.2 1 .4 1.1-.1 1.2.4 1-.2 1.1.3 1.2-.3 2.2-.1 1.1.2 1.1-.1 1.1-.3 1 .1 1-.5 1.2-.1 1.1-.1 1-.6 1v1.2l-.5.9-.4 1-.6 1-.5 1-.2 1.1-.8.9-.5 1-.6.8-.5.8-.6 1-.8.7-.7.9-.7.7-.7.7-.9.6-.8.8-.9.6-.6.6-1 .6-1.1.5-.8.6-1.2.5-1 .4-1 .5-1 .4-.9.3-1.1.2-2.2.6-.8.2-1.3.1H131l-.9.2h-1l-2.2.1h-1.1l-1.2-.1-1.3.1-1.1-.1h-2l-1.1.1-1.4-.1-1.1.1-2.3.1-.9-.1h-1.2l-1 .1-1-.1h-4.8l-1.1.1h-.8l-1.2-1.2.2-1.1zm6.5-2.1h2.2l1 .1 1.1-.1h1.3l1.1.1h.8l1.4-.2h1l1.3.1 1.1-.1 1 .1.9-.1 1.2.1h2.5l3.1-.2 1.3-.1.9-.1 1.4-.1.8-.2 1.2-.4 1-.2 1.2-.3 1.1-.6.8-.3 1-.5 1.1-.6 1.1-.6.7-.7.8-.6 1-.7.7-.6.8-.8.6-.8.8-.8.6-1 .6-.9.6-.9.6-.9.4-1 .3-1 .6-1 .5-1.1.1-1.1.5-1v-1.2l.5-1v-1.1l.2-1.2.1-1.1v-1.2l.3-1-.1-2.2-.1-1.2-.2-1.2.1-1-.3-1.1-.1-1.2-.2-1-.5-1.1-.3-1.2v-1l-.5-1-.6-1-.3-1-.1-1-.6-1-.7-.9-.6-.9-.6-.8-.6-.9-.7-.7-.6-.8-.9-.7-.9-.7-1-.7-.8-.5-.9-.6-1-.6-.9-.5-2-.9-2.1-.5-2.4-.6-.9-.1-1.4-.2h-.9l-1.1-.2h-4.6l-1.3.1-1.1-.1h-1.1l-1 .1-1.1-.1-1.1.1h-3.3l-1.1-.1h-1.2l-1.1.1-1-.1h-2.2l-1.2 1.2-.2 1v1.2l.1 1 .1 1.1-.1 1.1V43l.1 1.1-.1 1 .1 1.1v1.1l.1 1-.2 1.2.1 1-.1 1.1-.1 1.2.3 1.1-.2 1 .1 1.1-.1 1.2-.1 1.1.2 1 .1 1.1-.2 1.2-.1 1 .1 1 .1 1.2V67l.1 1.1-.2 1 .2 1.2-.2 1.1.2 1-.3 1.2v1.1l.2 1 .1 1.2-.3 1.1.3 1.1-.2 1-.1 1.2.2 2.1-.1 1.1.1 1 .1 1.1-.1 1.2-.1 1.1-.1 1 1.1 1.2h1.1zm71.4 0l1.3-.1.8.1h1.1l1-.1h1.3l1.2.1h5.3l1.3-.1h.8l1 .1h2.3l1.3-.1h1l1 .1h1.2l1-.1h1.1l1.2.1.8-.1h5.6l1 .1 1.2-.1 1.2.1.8-.1 1.3.1.9-.1 1.3 1-.1 1.1-.3 1-1.1 1.2-1.3-.1-1 .1-1-.1-1.3.1-.9-.1-1.2.1h-2.4l-1-.1-.9.1-1.4-.1h-.8l-1.2.1-1.2-.1-1.1.1h-1.3l-.8-.1H195l-1.1.1h-7.8l-1.4-.1-1.1.1h-2.2l-.8-.1-1.3.1h-1l-1.2-.1h-2.4l-.9-1.1.1-1.1-.2-1.1.2-1.1-.1-1-.2-1.1.2-1.2-.2-1.1.3-1.2v-1l-.3-1.1v-1.2l.3-1v-1.2l-.2-1 .1-1.1v-1.2l-.1-1 .2-1.2-.2-1.1-.1-1 .3-1.2v-1.2l-.1-1.1-.2-1v-3.4l.2-1-.2-1.2.2-1.1-.2-1.1.3-1-.1-1.1-.2-1.1.3-1.2-.1-1.2.1-1V52l-.1-1 .1-1.2-.3-1.1.3-1-.3-1.2v-1l.3-1.2-.3-1V41l.1-1v-1.3l-.1-1.1v-1.1l.3-1v-2.2l-.3-1.2 1.1-1h1.2l1.3-.1.9.1h1.3l1.1-.1.9.1 1.1-.1 1 .1 1.3-.1 1.1.1h3.3l1.2-.1.9.1 1.1-.1 1.2.1 1-.1 1 .1 1.4-.1.8.1 1.3-.1.9.1h4.6l1-.1 1.3.1h1l1.2-.1 1.1.1h1l.9-.1 1.2.1h4.4l1.1.9-.1 1.2-.1 1-1.6 1.1-.8-.1-1.1.1h-1.4l-1.2-.1-1 .1h-4.4l-1.3-.1-1.1.1-.8-.1h-5.7l-1.3.1-.8-.1h-2.5l-.9.1h-2.1l-1.4-.1h-1l-1 .1H185l-1-.1h-1.4l-.9.1-1.2-.1-1.3.1-1 1.1.2 1v1.3l-.1 1.1.1 1-.2 1.2.1 1.2-.1 1.1.1 1-.1 1.2.1 1.1v1.2l-.2 1 .3 1.1-.2 1.2.2 1.2-.1 1.1-.2 1 .2 1.1-.2 1.3v1l1.2 1.1 1.3.1 1-.1 1.2.1h1l1-.1h4.4l1.3.1 1.1-.1h6.5l1.4.1h.8l1.1-.1h1.2l1.2.1h1l1-.1h5.8l1 .1h2.3l1.1 1v1.1l-.2.9-.8 1.1h-1.1l-1.4.1h-1.1l-.8-.1-1.5.1H207l-1.1-.1-1.1.1-1.2-.1h-1.1l-1.1.1-.9-.1-1.3.1-1.1-.1-1 .1-1.1-.1-1 .1-1.3-.1-.9.1h-2.3l-1.1-.1-1.3.1-.8-.1-1.1.1-1.2-.1h-3.4l-1.1.1h-1.1l-1.2 1 .1 1.2.1 1.1-.2 1.2.1 1-.1 1.2.1 1.1v3.4l.1 1-.2 1.1v1.3l-.1 1 .1 1.1.1 1.2-.1 1.1-.1 1.2v2.1l.2 1.2V90l1.2 1 .9.1zM283.9 31l1.3.1.6.9-.6 1-.2 1.1-.6 1-.4 1.1-.3.9-.5 1-.7 1.1-.3.9-.3 1.1-.6 1-.5.9-.3 1-.6 1.1-.5 1-.2 1-.6 1-.2 1-.7 1-.4 1.1-.4.9-.3 1-.6 1.2-.6 1-.3 1-.6 1-.5 1-.1 1-.5.9-.7 1.1-.2 1-.5 1-.6 1-.5 1.1-.3.9-.6 1.1-.4.9-.3 1-.6 1-.5 1.1-.2 1V74l-.5.9-.5 1.1-.6.9-.6 1-.4 1.1-.2 1-.5 1-.6 1-.4 1-.4 1-.6 1.1-.3.9-.5 1-.6 1-.5 1.1-.1 1-.6 1-.5 1-.3 1.1-.4 1-1.9.9-.9.1h-1.3l-1.6-1-.5-1-.4-1.1-.6-1-.6-1.1-.3-1-.3-.9-.5-1-.7-1.1-.4-1-.2-1-.5-1-.7-.9.5-1.1-.5-1.1-.4-1-.6-.9-.4-1.1-.3-.9-.6-1.1-.6-.9-.3-1.1-.4-1.1-.4-.9-.5-1.1-.6-1-.3-1-.7-1-.5-.9-.2-1.1-.6-.9-.2-1.1-.7-1.1-.2-.9-.4-1-.5-1.1-.6-.9-.5-1.1-.5-.9-.3-1-.6-1.1-.4-1-.5-1.1-.6-1-.5-.9-.2-1.1-.6-1-.2-1-.8-2.1-.6-.9-.6-1-1.3-3-.4-1.1-.3-.9-.6-1-.3-1.2-.4-1-.6-1-.5-1 .9-1 1.3.1h1.1l1.7 1 .4.9.5 1 .5 1.1.3.9.6 1.1.3.9.7 1.1.4.9.4 1 .3 1.1.6 1 .3 1 .7 1 .4 1 .4.9.4 1 .6 1 .3 1 .4 1.1.4.9.5 1 .5 1.1.6 1 .3.9.3 1.1.6 1 .5 1 .4 1 .6 1 .2 1 .6 1 .4 1.1.6.9.5 1 .6 2 .7 1.1.3 1 .4.9.6 1 .5 1 .2 1 .7 1.1.3.9.6 1.1.2.9.4 1.1.7 1 .1 1 .7 1 .4.9.3 1.1.6.9.3 1.1.6.9.5 1 .6.1.6-1.1.6-.9.5-1 .3-1.1.3-1 .5-.9.7-1.1.3-1 .5-.9.4-1.1.5-1 .4-1 .6-1 .6-.9.1-1.1.6-1 .6-.9.8-2 .2-1.1.6-1 .3-1 .6-1 .3-1 .3-1 .7-.9.5-1.1.4-1.1.2-1 .7-.9.4-1.1.5-.9.3-1.1.5-.9.3-1.1.9-2 .5-.9.6-1 .4-1.1.5-1 .6-.9.3-1 .5-1 .4-1 .6-1.1.4-.9.4-1.1.6-1 .3-.9.4-1.1.5-.9.6-1 .2-1.1.8-2 1.7-1zm55.3 4.2h-5.6l-1.2.1h-5.5l-1.3-.1-1 .1h-.9l-1.2-.1-1.3.1h-1.1l-1.1-.1h-1l-1 .1h-2.2l-1.1-.1-1.1.1h-5.8l-.8-.1-1.4.1h-2l-1.2 1.1.1.9v1.2l-.2 1.1.3 1.1-.1 1-.2 1.1v1.1l.1 1.1.1.9.1 1.1v1.2l-.1 1.1v.9l.1 1.1v2.2l-.3 1.1.3 1.1-.3 1 .2 1.1.1 1.1-.1 1.1.9 1 1.1.1h1.2l1.1-.1 1 .1 1.1-.1 1.1.1h1.2l1.1-.1h1l1.1.1h7l.8-.1h1.2l1 .1h1.4l.9-.1 1.1.1 1.3-.1 1.1.1h3.2l1.1-.1h1l1.3.1h.9l1.2-.1 1 1.1.2.9-.2 1.2-1.2 1-1-.1h-4.2l-1.4.1-.8-.1-1.2.1-1.1-.1h-7.8l-1.3.1h-2l-1.2-.1-1.2.1-.9-.1-1.3.1-.8-.1h-4.7l-1.1.1-1.1-.1-1 .1-1-.1-1.1 1.2-.1 1 .1 1.1-.2 1.1.1 1.3-.1 1 .3 1.1-.1 1.2-.2 1.1v1l.1 1.2-.1 1v2.3l.2 1.1-.1 1.1.2 2.2-.1 1.2-.2 1.1.2 1.1.1 1.1-.1 1.1-.2 1.2.2 1-.2 1.1-.9 1.2-1.1-.1h-1.2l-.9-1 .1-1.2v-2.1l-.1-1.2-.2-1.1.1-1 .2-1.3v-1L297 84l.3-1v-1l-.1-1.1-.1-1.2.2-1.1v-1.1l-.3-1v-1.1l.2-1.1-.2-1.1v-1.1l.2-1.3-.2-1.1v-1l.3-1.1v-2.3l-.2-1v-1.2l.2-1-.2-1.2.1-1.1-.2-1.1.2-1v-1.1l-.1-1.2v-4.5l.2-1v-1.2l-.3-1v-1.2l.3-1-.1-1.1-.1-1.2.2-1-.3-1.2.1-1.1v-1.2l.1-1.1-.1-1 .1-1.2v-1l.1-1.2-.2-1.1 1-1h1.3l1.1-.1h1l1 .1 1-.1 1.1.1 1.2-.1h2.3l1.2.1h.9l1.3-.1h3.2l1 .1.9-.1 1.4.1h.9l1.3-.1h1.9l1.4.1h3.2l.8-.1 1.1.1 1.2-.1 1.3.1h6.5l.8-.1h2.3l.9 1-.2 1.2-.1 1-1.2 1.1-.9-.1zm24.2 55.9l1.3-.1.8.1h1.1l1-.1h1.3l1.2.1h5.3l1.3-.1h.8l1 .1h2.3l1.3-.1h1l1 .1h1.2l1-.1h1.1l1.2.1.8-.1h5.6l1 .1 1.2-.1 1.2.1.8-.1 1.3.1.9-.1 1.3 1-.1 1.1-.3 1-1.1 1.2-1.3-.1-1 .1-1-.1-1.3.1-.9-.1-1.2.1h-2.4l-1-.1-.9.1-1.4-.1h-.8l-1.2.1-1.2-.1-1.1.1h-1.3l-.8-.1H378l-1.1.1h-7.8l-1.4-.1-1.1.1h-2.2l-.8-.1-1.3.1h-1l-1.2-.1h-2.4l-.9-1.1.2-1.1-.2-1.1.2-1.1-.1-1-.2-1.1.2-1.2-.2-1.1.3-1.2v-1l-.3-1.1v-1.2l.3-1v-1.2l-.2-1 .1-1.1v-1.2l-.1-1 .2-1.2-.2-1.1-.1-1 .3-1.2v-1.2l-.1-1.1-.2-1v-3.4l.2-1-.2-1.2.2-1.1-.2-1.1.3-1-.1-1.1-.2-1.1.3-1.2-.1-1.2.1-1V52l-.1-1 .1-1.2-.3-1.1.3-1-.3-1.2v-1l.3-1.2-.3-1V41l.1-1v-1.3l-.1-1.1v-1.1l.3-1v-2.2l-.3-1.2 1.1-1h1.2l1.3-.1.9.1h1.3l1.1-.1.9.1 1.1-.1 1 .1 1.3-.1 1.1.1h3.3l1.2-.1.9.1 1.1-.1 1.2.1 1-.1 1 .1 1.3-.1.8.1 1.3-.1.9.1h4.6l1-.1 1.3.1h1l1.2-.1 1.1.1h1l.9-.1 1.2.1h4.4l1.1.9-.1 1.2-.1 1-1.6 1.1-.8-.1-1.1.1h-1.4l-1.2-.1-1 .1h-4.4l-1.3-.1-1.1.1-.8-.1h-5.7l-1.3.1-.8-.1h-2.5l-.9.1h-2.1l-1.4-.1h-1l-1 .1H368l-1-.1h-1.4l-.9.1-1.2-.1-1.3.1-1 1.1.2 1v1.3l-.1 1.1.1 1-.2 1.2.1 1.2-.1 1.1.1 1-.1 1.2.1 1.1v1.2l-.2 1 .3 1.1-.2 1.2.2 1.2-.1 1.1-.2 1 .2 1.1-.2 1.3v1l1.2 1.1 1.3.1 1-.1 1.2.1h1l1-.1h4.4l1.3.1 1.1-.1h6.5l1.4.1h.8l1.1-.1h1.2l1.2.1h1l1-.1h5.8l1 .1h2.3l1.1 1v1.1l-.2.9-.8 1.1h-1.1l-1.4.1h-1.1l-.8-.1-1.5.1H390l-1.1-.1-1.1.1-1.2-.1h-1.1l-1.1.1-.9-.1-1.3.1-1.1-.1-1 .1-1.1-.1-1 .1-1.3-.1-.9.1h-2.3l-1.1-.1-1.3.1-.8-.1-1.1.1-1.2-.1h-3.4l-1.1.1h-1.1l-1.2 1 .1 1.2.1 1.1-.2 1.2.1 1-.1 1.2.1 1.1v3.4l.1 1-.2 1.1v1.3l-.1 1 .1 1.1.1 1.2-.1 1.1-.1 1.2v2.1l.2 1.2V90l1.2 1 .9.1zm72.3 5.3l-.9-.2-1.2-.1-.9-.1h-1.2l-1.2-.3-.9-.1-1.1-.3-1.1-.3-.9-.2-1.4-.4-.9-.3-1-.3-.9-.5-1.1-.5-1-.4-.8-.6-1.2-.5-.7-.6-1-.5-.9-.6-.9-.7-.8-.6-.2-1.5.5-1 .6-.8 1.2-.4 1.9 1.4.8.6.8.6 1 .6 1 .6.8.5 1.2.4.8.4.9.4 1.1.3 1.1.3 1 .3 1.1.3 1.1.3 1 .1 1 .2 1.2.1h1.3l1 .2.9-.1h2.4l1.2-.1 1.1.1 1.1-.2.8-.2h1.4l.8-.2 1.3-.3.8-.4 1.3-.2 1.1-.4 1.1-.6.8-.5.8-.4.9-.7 1.1-.6.8-.6.7-.8.8-.8.6-.8.6-1.1.3-1 .6-1 .1-1 .2-1 .2-2.2-.4-1.2-.3-.9-.1-1-.4-1-.6-.8-.6-.9-.6-.8-.7-.9-.6-.6-1.7-1.3-1.3-.5-1-.5-.7-.3-1.2-.4-1.2-.3-.8-.4-1.1-.1-1.4-.2-.9-.2-1.2-.1-1.2-.2h-.9l-1.3-.2h-.9l-2.4-.2-.9-.1-1.3-.2-1.1-.1-1.2-.2-1.1-.1-1-.3-1.2-.2-.8-.3-1.1-.3-1.2-.3-1.2-.5-.9-.4-1-.4-.8-.6-1-.6-1-.5-1.8-1.5-.5-.8-.8-.8-.5-.9-.5-1-.6-1-.4-.9-.3-1.1-.3-1.1-.2-1.1.1-1.1-.3-2.2.1-1.2.5-.9.3-1.2.4-1 .3-1 .4-.9.6-.9.6-.9.8-.8.6-.7.9-.6.6-.6 1-.7.9-.6.8-.5 1.3-.5.8-.6.9-.3 1.3-.4 1-.3 1.9-.5 1.3-.3h.9l1.3-.3h2.2l1-.2 2.2.1h2.5l2.1.2 1 .2 1.3.1.7.3 1.3.1 3 .8 2.4.6 1 .3.9.5 1.2.3.9.5 1.1.4.6.5 1.2.6 1 .5.3 1.6-.6.9-.1.9-1.5.4-1.9-.9-2-.9-1-.4-1.1-.5-1.2-.3-1-.4-1.1-.3-1-.2-.8-.3-1.4-.2-2.1-.5-1.2-.2h-1.1l-.8-.2h-1.1l-1.1-.1h-2.2l-1.4.2-1.2-.1-2 .3-1.3.3-1.1.1-1.2.3-.8.3-1 .5-1.1.5-1 .5-1.3.6-.7.6-.7.7-1.1.7-.7.9-.6.9-.4.9-.6 1.1-.2 1 .1 1.2-.1 2.2.1 1 .3 1.1.3 1.2.1.9.6.9.6 1 .9.8.7.6.7.7 1 .6 1.1.4 1 .5.8.6 1.2.2 2.2.6 1.1.3 1.2.2h1l1.3.2.9.2h1.2l1.3.2 2.2.2h1l1 .2h1.3l1.2.3h1l1.1.3.8.1 1.2.4 1 .3 1 .2 1.1.3 1.2.4 1.1.5 1 .4.7.6 1 .6 1.8 1.1.9.7.6.7.9.9.4.9.8.9.5.9.2 1 .6.9.3 1.2.3.9.1 1.1-.1 1.1v3.3l-.1 1.2-.2 1-.6 1-.3 1-.4 1-.7.9-1.2 1.7-.8.8-.5.8-1.1.7-1.5 1.3-1.3.6-.8.6-1 .5-.9.5-.9.5-1.2.4-1.2.4-2 .5-1.1.2-1.1.3-1.1.1-1.4.2h-1.1l-1 .1-1.3.1-2.1-.1-1.2-.2zM521 33.2l-.5.9-1 1.1h-2.2l-1.2.1h-2.4l-1.1-.1h-1.1l-1.1.1h-2.3l-1-.1-1.2.1-.9-.1-1 .1h-5.8l-1.2 1 .3 1.1-.3 1.1v1.2l.2 1 .1 1v1.1l-.1 1.2-.2 2.2.3 1-.2 1.2v1l.1 1.1v1.1l.1 1.1v2.1L497 56l.1 1 .1 1.2-.1 1.1.2.9-.3 1.2.1 1.1.2 1.1v1l-.1 1.1-.1 1.2.1 1.1.2 1.1-.2 1.1v1l.2 1.1-.2 1v1.2l.2 1v1.1l-.2 1.2V80l.1 1.1.1 1.1v1.1l-.2 1.1v1l-.1 1.2.3 1.1v1.1l-.3 1 .3 1.1-.3 1 .2 1.1-.1 1.1-.9 1.1-1.1.1h-1.4l-.9-1.1V93l-.2-1 .1-1.2-.1-.9v-1.1l.2-1.1-.1-1.2v-1.1l.1-1v-1.2l-.3-1.1V81l.3-.9v-2.2l-.3-1.1.2-1.1.1-1.1v-1.1l-.2-1.2-.1-1.1.3-.9-.3-1.1.2-1.2-.1-1 .1-1.1v-1.2l-.1-1.1.1-1-.2-1.2v-1.1l.2-1-.1-1v-1.1l.2-1.1-.3-1.1v-1.1l.1-1.1-.1-1.1.1-1.1-.1-1.1.2-1.1-.1-1.1.1-1-.2-1.2.2-1.1v-1l.1-1.1-.3-1.2v-2.1l.2-1.1v-1l-1.1-1.2-1 .1h-1.1l-1.4-.1-1.1.1h-.9l-1.2-.1-1.1.1h-1.2l-1-.1-1.3.1-1.2-.1-1 .1-.9-.1h-1.2l-1.1.1h-3.3l-1.1-.1-1.2-1v-2.1l1.1-1.1h2.2l.9.1 1.4-.2.9.1 1.3-.1.8.1 1.4-.1h1.1l.9.1 1.3-.1h5.3l1.1.1 1.3-.1 1.1.1h.9l1.2-.1h3.1l1.1.1h1.1l1.2-.1 1.2.1.9-.1h1.2l.9.1h1.4l.9-.1 1.3.1h1l.9-.1h1.4l.8.1h1.3l1.2-.1h1.1l.8.1 1.4-.1h1.1l1.1.1.9 1v1.1z"/><path class="st1" d="M108 20.8h-1.9l-.3-.1-.3-.1-.3-.1-.2-.1-.3-.1-.3-.1-.2-.1-.3-.1-.3-.1-.2-.1-.2-.2-.3-.1-.2-.2-.3-.1-.2-.2-.1-.4.1-.2.1-.2.4-.1.2.2.3.1.2.2.3.1.2.2.4.2.2.1.3.1.2.1.3.1.3.1.6.1h3.6l.6-.1h.3l.2-.1.3-.1.3-.1.4-.1.2-.1.3-.1.3-.2.2-.2.2-.1.2-.2.1-.2.2-.2.1-.3.2-.3v-.6l.1-.3v-1.2l-.1-.3-.1-.2-.1-.2-.2-.2-.1-.2-.2-.2-.2-.1-.2-.2-.5-.3-.3-.1-.2-.1-.2-.1-.4-.1h-.2l-.3-.1-.6-.1h-.3l-.3-.1h-1.8l-.3-.1h-.7l-.3-.1h-.6l-.3-.1-.2-.1-.3-.1-.3-.1-.2-.1-.3-.1-.3-.1-.2-.2-.2-.2-.2-.2-.2-.2-.2-.3-.2-.2-.1-.2-.1-.2v-.6l-.1-.3V7.5l.1-.2.1-.3v-.3l.1-.2.1-.2.2-.2.2-.3.1-.2.2-.2.3-.2.2-.2.2-.2.2-.1.3-.1.2-.1.3-.1.2-.1.5-.2h.3l.3-.1h.6l.3-.1h3l.3.1h.5l.3.1.3.1h.3l.2.1.3.1.3.1.2.1.3.1.2.1.6.3.2.1.1.4-.1.2-.1.3-.4.1-.5-.3-.3-.1-.2-.1-.2-.1-.3-.1-.4-.1-.2-.1h-.3l-.3-.1-.2-.1h-.8l-.3-.1h-3.7l-.4.1-.2.1-.3.1-.2.1-.3.1-.2.2-.3.3-.2.2-.1.2-.1.2-.2.3v.3l-.1.3-.1.3V9l.1.3.2.2.1.3.2.2.1.2.2.2.2.2.2.2.3.1.3.1.2.1h.3l.3.1.3.1h2.2l.9.1h1.3l.2.1.3.1h.3l.3.1.3.1.2.1.3.1.2.1.2.2.3.1.2.1.2.2.2.2.3.2.1.2.2.2.2.2.1.2.1.3.1.3v.3l.1.3v.6l-.1.6v.6l-.1.3v.3l-.2.2-.1.3-.1.2-.1.2-.2.2-.2.2-.2.2-.2.2-.2.2-.2.2-.3.1-.3.2-.2.1-.3.1-.3.1-.2.1-.5.1-.3.1h-2.7l-.3.3zm11-.8v-3.6l-.1-.3v-.6l-.1-.3v-2.4l-.1-.3V9.8v.2l.1-.3V6.8l.2-.2V4.2l.2-.3h8.6l.3.1h.3l.3.1.2.1.3.1.6.2.2.1.3.2.1.2.3.2.1.2.2.2.2.2.1.3.1.2.2.2v.3l.1.3v.3l.1.3V10l-.1.3-.1.2-.1.3v.3l-.2.3-.2.2-.1.2-.1.2-.2.2-.1.2-.3.2-.2.2-.3.1-.2.2-.3.1-.3.1-.5.2-.4.1-.2.1h-7.6l-.3.3v2.3l-.1.3v3.7l-.3.3h-.5l-.4-.3.3-.3zm1.7-7.3h7.1l.2-.1.4-.1.2-.1.3-.1.1-.3.2-.2.2-.2.2-.2.2-.2.1-.2.1-.3.1-.3.1-.3v-.3l.1-.3V8.4l-.1-.3v-.5l-.1-.3V7l-.1-.3-.2-.2-.1-.2-.2-.2-.2-.2-.3-.2-.3-.1-.2-.1-.3-.1-.2-.1-.3-.1h-7.3l-.2.3v1.4l.1.3v3.9l-.1.3v1.2l-.1.3.3.3.3-.5zm24.9 7.3l-.2-.3v-.2l-.2-.3-.1-.3v-.3l-.1-.2-.2-.2v-.3l-.1-.3-.1-.2-.1-.3-.1-.3-.1-.2-.2-.3-.3-.3h-8.9l-.4.3-.2.2v.3l-.2.3-.1.3-.1.3-.1.3-.1.3v.2l-.1.3-.1.3v.2l-.2.3-.1.3-.1.2-.2.3-.4.2h-.7l-.2-.3.1-.3.1-.3.2-.2.1-.3-.1-.2.1-.3.1-.3.2-.2.1-.3.1-.3.1-.3.1-.2.1-.3.2-.3.1-.3.1-.2.2-.3.1-.3.2-.3.1-.3.1-.3.1-.2.1-.3.1-.2v-.3l.1-.3.2-.3.1-.3.1-.2v-.3l.2-.3.1-.3.1-.3.1-.2.1-.3.1-.3.1-.3.1-.3v-.3l.3.5.1-.3.1-.2v-.3l.1-.2.1-.3.2-.3.1-.2v-.3l.2-.3.1-.2.1-.3v-.3l.1-.3.1-.2.2-.3.1-.2.1-.3.2-.3v-.3l.2-.2v-.3l.2-.2.4-.3h.6l.4.3.1.3.2.3.1.3.1.3.1.2.1.3.1.2.1.2.1.3.2.3v.2l.2.3.1.3V8l.1.2.1.3.1.2.1.3.1.2.2.3v.3l.2.3.2.5.1.3.1.3.1.2.2.3.1.3.1.3.2.2.1.3.1.2.1.3.1.2.1.3.2.5.1.2.1.3.3.5v.3l.2.3.1.2.1.3v.3l.1.3.2.2v.3l.2.2.1.3.1.3.1.3.1.2.1.3.1.2.2.5.1.3.2.3.1.3-.2.2h-.6l-.4-.3.3-.6zm-10-4.9h7.6l.2-.3-.2-.3-.1-.2-.1-.3-.1-.3-.1-.3-.1-.2-.1-.3-.1-.3-.3-.5-.1-.3-.1-.3v-.3l-.2-.2-.1-.3-.2-.3-.1-.2v-.3l-.1-.2-.3-.1-.3-.8-.1-.3-.2-.2-.1-.3v-.3l-.1-.3-.2-.1-.2-.3-.1-.2-.1-.3-.2-.3v-.3l-.1-.2h-.2l-.1.3-.1.3-.1.3-.1.2-.2.2-.1.2-.1.3-.1.2-.1.3-.3.5v.2l-.1.3-.1.3-.1.3-.1.2-.1.3-.1.3-.1.2-.1.3-.1.2-.1.3-.2.2v.3l-.1.3-.1.2-.1.3-.1.3-.2.2-.1.3-.2.3v.3l-.1.3-.1.3-.1.3.1.2.1-.1zm20.6 5.7h-.3l-.6-.1h-.6l-.3-.1-.3-.1-.2-.1h-.2l-.3-.1-.3-.1-.3-.1-.3-.1-.2-.1-.3-.2-.2-.1-.3-.2-.3-.2-.2-.1-.3-.2-.2-.2-.3-.2-.2-.2-.2-.2-.2-.2-.2-.2-.1-.2-.2-.2-.1-.2-.1-.2-.2-.3-.1-.2-.1-.3-.1-.3-.1-.3-.1-.3-.1-.3-.1-.3v-.3l-.1-.3v-.6l-.1-.3v-2.4l.1-.3v-.3l.1-.3v-.3l.1-.3v-.3l.1-.3.1-.3.1-.3.1-.3.2-.3.1-.2.1-.2.1-.3.2-.2.2-.2.1-.2.2-.2.3-.2.2-.2.2-.2.2-.2.4-.3.3-.1.2-.2.3-.1.2-.1.3-.1.2-.1.3-.1.3-.1.2-.1h.3l.3-.1.5-.1h.3l.2-.1h3.3l.6.1.2.1.3.1.3.1.3.1.3.1.3.1.2.1.3.1.3.1.3.2.4.3.1.4-.2.4-.4.1-.2-.1V6l-.2-.1-.2-.1-.2-.1-.3-.1-.5-.2h-.4l-.3-.1-.2-.2-.3-.1-.5-.1h-3.3l-.1.1h-.3l-.3.1-.3.1-.3.1-.3.1-.2.1-.3.1-.3.1-.3.1-.1.2-.2.2-.2.2-.2.2-.2.2-.3.1-.1.2-.2.2-.2.2-.2.3-.1.2-.1.2-.1.2-.1.3-.2.3v.2l-.1.3-.1.3v.2l-.1.3v.9l-.1.3v.9l.1.3v.3l.1.3v.6l.1.3.1.3v.3l.1.3.1.3.1.2.2.3.1.2.2.3.1.2.2.2.2.3.2.2.2.2.2.2.1.2.2.2.3.2.2.2.2.2.2.1.3.1.2.1.3.1.2.1.4.1.2.1h.3l.3.1.3.1h.3l.3.1h2.6l.3-.1h.3l.3-.1h.6l.3-.1.3-.1.2-.1h.3l.3-.1.3-.1.3-.1.3-.1.2-.1.2-.1.2.1v.3l-.1.3v.3l-.4.4-.2.1-.3.1-.2.1-.3.1-.2.1-.2.1-.3.1h-.3l-.3.1-.3.1h-.5l-.5.1H157l-.8-.2zm11.9-1.3h9.8l.3.3v.3l-.1.3-.3.3h-11.2l-.2-.3v-2.1l.1-.3v-.3l-.1-.3v-.3l.1-.3v-2.4l.1-.3v-2.8l.1-.3v-.6l.1-.3V8.8l-.1-.3.1-.3-.5-.2v-.3l.1-.3-.1-.3V5.4l.1-.3v-.5l-.1-.3.3-.3h11l.3.2v.6l-.4.3h-9.7l-.3.3V9l.1.3v2.1l.3.3h9.4l.3.3v.2l-.2.3h-9.3l-.3.3v6.5l.3.3v-.1zm25.7 1.3h-1.9l-.3-.1-.3-.1-.3-.1-.2-.1-.3-.1-.3-.1-.2-.2-.3-.1-.3-.1-.2-.1-.2-.2-.3-.1-.2-.2-.3-.1-.2-.2-.1-.4.1-.2.1-.2.4-.1.2.2.3.1.2.2.3.1.2.2.4.2.2.1.3.1.2.1.3.1.3.1.6.1h3.6l.6-.1h.3l.2-.1.3-.1.3-.1.4-.1.2-.1.3-.1.3-.2.2-.2.2-.1.2-.2.1-.2.2-.2.1-.3.2-.3v-.6l.1-.3v-1.2l-.1-.3-.1-.2-.1-.2-.2-.2-.1-.2-.2-.2-.2-.1-.2-.2-.5-.3-.3-.1-.2-.1-.2-.1-.4-.1h-.2l-.3-.1-.6-.1h-.3l-.3-.1h-1.9l-.3-.1h-.6l-.3-.1h-.6l-.3-.1-.2-.1-.3-.1-.3-.1-.2-.1-.3-.1-.3-.1-.2-.2-.2-.2-.2-.2-.2-.2-.2-.3-.2-.2-.1-.2-.1-.2v-.6l-.1-.3V7.5l.1-.2.1-.3v-.3l.1-.2.1-.2.2-.2.2-.3.1-.2.2-.2.3-.2.2-.2.2-.2.2-.1.3-.1.2-.1.3-.1.2-.1.5-.2h.3l.3-.1h.6l.3-.1h3l.3.1h.5l.3.1.3.1h.3l.2.1.3.1.3.1.2.1.3.1.2.1.6.3.2.1.1.4-.1.2-.1.3-.4.1-.5-.3-.3-.1-.2-.1-.2-.1-.3-.1-.3-.1-.2-.1h-.3l-.4-.1-.3-.1h-.8l-.3-.1h-3.7l-.4.1-.2.1-.3.2-.2.1-.3.1-.2.2-.2.2-.2.2-.2.2-.1.2-.2.3v.3l-.1.3-.1.3V9l.1.3.2.2.1.3.2.2.1.2.2.2.2.2.2.2.3.1.3.1.2.1h.3l.3.1.3.1h2.2l.9.1h1.3l.2.1.3.1h.3l.3.1.3.1.2.1.3.1.2.1.2.2.3.1.2.1.2.2.2.2.3.2.1.2.2.2.2.2.1.2.1.3.1.3v.3l.1.3v.6l-.1.6v.6l-.1.3v.3l-.2.2-.1.3-.1.2-.1.2-.2.2-.2.2-.2.2-.2.2-.2.2-.2.2-.3.1-.3.2-.2.1-.3.1-.3.1-.2.1-.5.1-.3.1h-2.6l-.3.3zm22-16.2l-.1.2-.3.3h-5.6l-.3.3.1.3-.1.3v1.9l.1.3v2.1l-.1.3v1.1l-.1.3v6.3-.3.3l.1.3v.3l-.1.3.1.3-.1.3v.6l-.2.3h-.7l-.2-.3v-3l-.1-.3v-.3l.1-.2V16l-.1-.3v-1.5l.1-.2-.1-.3v-3.6l-.1-.3v.1-3.1l-.1-.3V5.4l-.3-.3h-5.6l-.3-.3v-.5l.3-.3h12.7l.2.3v.3zM228.6 20l-.2-.3v-.2l-.2-.3-.1-.3v-.3l-.1-.2-.2-.2v-.3l-.1-.3-.1-.2-.1-.3-.1-.3-.1-.2-.2-.3-.3-.3h-8.9l-.4.3-.2.2v.3l-.2.3-.1.3-.1.3-.1.3-.1.3v.2l-.1.3-.1.3v.2l-.2.3-.1.3-.1.2-.2.3-.4.2h-.8l-.2-.3.1-.3.1-.3.2-.2.1-.3.1-.3.1-.3.1-.3.2-.2.1-.3.1-.3.1-.3.1-.2.1-.3.2-.3.1-.3.1-.2.2-.3.1-.3.2-.3.1-.3.1-.3.1-.2.1-.3.1-.2v-.3l.1-.3.2-.3.1-.3.1-.2V12l.2-.3.1-.3.1-.3.1-.2.1-.3.1-.3.1-.3.1-.3v-.3l.2.6.1-.3.1-.2v-.3l.1-.2.1-.3.2-.3.1-.2v-.3l.2-.3.1-.2.1-.3v-.3l.1-.3.1-.2.2-.3.1-.2.1-.3.2-.3v-.3l.2-.2v-.3l.2-.2.4-.3h.6l.4.3.1.3.2.3.1.3.1.3.1.2.1.3.1.2.1.2.1.3.2.3v.2l.2.3.1.3V8l.1.2.1.3.1.2.1.3.1.2.2.3v.3l.2.3.2.5.1.3.1.3.1.2.2.3.1.3.1.3.2.2.1.3.1.2.1.3.1.2.1.3.2.5.1.2.1.3.3.5v.3l.2.3.1.2.1.3v.3l.1.3.2.2v.3l.2.2.1.3h.6l.1.3.1.2.1.3.1.2.2.5.1.3.2.3.1.3-.2.2h-.6l-.4-.3-.2-.3zm-10-4.9h7.6l.2-.3-.2-.3-.1-.2-.1-.3-.1-.3-.1-.3-.1-.2-.1-.3-.1-.3-.3-.5-.1-.3-.1-.3v-.3l-.2-.2-.1-.3-.2-.3-.1-.2v-.3l-.1-.2-.1-.3-.3-.8-.1-.3-.2-.2-.2-.1v-.3l-.1-.3-.3-.1-.1-.3-.1-.2-.1-.3-.2-.3v-.3l-.1-.2h-.2l-.1.3-.1.3-.1.3-.1.2-.2.2-.1.2-.1.3-.1.2-.1.3-.3.5v.2l-.1.3-.1.3-.1.3-.1.2-.1.3-.1.3-.1.2-.1.3-.1.2-.1.3-.2.2v.3l-.1.3-.1.2-.1.3-.4.3-.2.2-.1.3-.2.3v.3l-.1.3-.1.3-.1.3.1.2.3-.1zm23.5-10.5l-.1.2-.3.3h-5.6l-.3.3.1.3-.1.3v1.9l.1.3v2.1l-.1.3v1.1l-.1.3v6.3-.3.3l.1.3v.3l-.1.3.1.3-.1.3v.6l-.2.3h-.7l-.2-.3v-3l-.1-.3v-.3l.1-.2V16l-.1-.3v-1.5l.1-.2-.1-.3v-3.6l-.1-.3v.1-3.1l-.1-.3V5.4l-.3-.3h-.3.3-5l-.3-.3v-.5l.3-.3h12.7l.2.3v.3zm3.1 15.4v-3l.1-.3v-1.6l.1-.3V9.4l-.1-.3V6.6l-.1-.3.1-.3v-.6l-.1-.3.1-.3v-.5l.2-.3h.6l.3.3-.1.3v1.2l.1.3v.6l-.1.3.1.3-.1.3v2.9l.1.3-.1.3v.3l.1.3v.6l-.1.3.1.3v1.5l-.1.3v1.5l-.1.3v.9l-.1.3.1.3v2.4-.4.3l-.3.3h-.5l-.3-.3V20zm12.8.8h-.8l-.3-.1h-.3l-.3-.1-.3-.1-.2-.1-.3-.1-.2-.1-.3-.1-.2-.1-.3-.1-.3-.1-.3-.1-.5-.3-.2-.2-.2-.2-.2-.2-.2-.2-.2-.2-.2-.2-.2-.2-.1-.2-.2-.2-.2-.3-.1-.2-.2-.2-.3-.5-.1-.2-.1-.3-.1-.3-.1-.3V15l-.1-.3v-.6l-.1-.3v-.6l.1-.3v-1.8l.1-.3v-.6l.1-.3.1-.2v-.3l.1-.3.1-.3.2-.2.1-.3.1-.3.1-.3.2-.3.1-.3.2-.2.2-.2.2-.3.1-.2.3-.2.2-.2.2-.2.2-.2.2-.2.2-.2.3-.2.1-.2.3-.2.2-.1.2-.1.3-.1.2-.1.3-.1.3-.1.3-.1.3-.1h.3l.2-.1h3.6l.3.1h.3l-.2.4h.3l.3.1.2.1.3.1.3.1.3.1.2.1.3.1.2.1.2.1.2.2.3.2.1.2.3.2.2.2.2.2.2.2.1.2.2.2.2.2.1.2.1.2.2.3.1.3.1.2.2.3v.3l.2.3v.2l.1.3.1.3v.6l.1.3v.3l.1.3-.1.3.1.3v1.4l-.1.3v.9l-.1.3-.1.3-.1.3v.3l-.1.3-.1.2-.1.3-.1.3-.1.2-.2.3-.1.2-.2.2-.2.2-.2.2-.2.2-.2.2-.2.2-.2.2-.2.2-.2.2-.2.2-.2.2-.2.1-.3.1-.2.1-.3.1-.3.1-.2.1-.3.1-.3.1-.2.1-.3.1h-2.5l-.5.1zm1.6-1.1h.8l.3-.1.2-.1h.3l.3-.1.3-.1.2-.1.2-.1.3-.2.2-.1.3-.1.2-.2.3-.2.2-.2.3-.2.2-.2.2-.2.2-.2.1-.2.1-.3.2-.2.1-.2.1-.3.1-.2.1-.3v-.2l.2-.3v-.6l.1-.3v-.3l.1-.3v-.9l-.1-.6v-.6l-.1-.3v-.6l-.1-.3-.1-.3v-.3l-.1-.3-.1-.3.1-.1-.1-.3-.1-.2-.2-.3-.1-.2-.2-.2-.2-.3-.1-.2-.2-.2-.3-.2-.2-.2-.1-.2-.5-.4-.1-.1-.3-.1-.2-.1-.2-.1-.3-.1-.3-.1-.3-.1-.2-.1-.5-.3h-3.1l-.3.1h-.3l-.2.1h-.3l-.2.1-.3.1-.3.1-.3.1-.2.1-.3.1-.3.2-.2.2-.2.1-.2.2-.2.2-.2.2-.3.1-.2.2-.1.2-.2.2-.2.2-.2.2-.1.3-.1.2-.1.4v.3l-.1.2-.1.3-.1.3-.1.3v1.8l.1.6v.3l.1.3v.9l.1.3v.6l.1.3.1.2.1.3.1.3.1.3.1.2.1.2.2.2.1.2.2.3.2.2.2.2.2.2.2.2.2.2.2.2.2.2.3.2.2.1.3.2.5.2.3.1.2.1h.3l.3.1h2.7zM284 4h.2l.3.3v1.2l-.1.3v2.6l.1.3v1.9l-.1.3.1.3-.1.3.1.3v3.3l.1.3-.1.3v.9l.1.3-.1.3v3l-.1.3-.2.3h-.6l-.4-.2-.2-.2-.2-.2-.2-.3-.1-.2-.2-.2-.2-.2-.1-.2-.2-.2-.1-.2-.2-.2-.2-.2-.2-.2-.2-.2-.1-.2-.2-.2-.2-.2-.2-.2-.1-.2-.2-.2-.2-.2-.2-.2-.1-.2-.2-.2-.2-.3-.1-.2-.2-.2-.1-.3-.2-.2-.1-.2-.2-.2-.2-.2-.2-.2-.2-.2-.2-.3-.1-.2-.2-.3-.1-.2-.2-.2-.2-.2-.1-.2-.2-.3-.2-.8-.1-.2-.2-.2-.2-.3-.1-.2-.2-.2-.2-.3-.1-.2-.2-.2-.2-.2-.2-.2-.2-.3-.1-.2-.2-.2-.1-.2-.2-.2-.1-.2-.2-.2-.3-.3-.2-.2-.1-.2-.2-.2-.2-.2-.1.1V9l.1.3v5.4l.1.3v2.1l.1.3v1.5l.1.3v2.1l-.3.3h-.5l-.3-.3V20l-.1-.3.1-.3-.1-.3v-.6l.1-.3V17l-.1-.3V11l-.1-.3.1-.3v-.3l-.1-.3v-.3.2-1.2l.1-.3-.4-.2.1-.3V5l.1-.3v-.4l.3-.3h.5l.4.2.2.2.1.2.2.3.2.2.1.2.1.2.2.2.1.2.1.2.2.2.2.2.1.2.2.2.2.2.2.2.1.2.2.2.3.2.1.2.2.2.2.2.1.2.2.2.1.2.2.2.1.2.2.2.3.3.2.2.1.2.2.2.1.2.2.2.2.2.1.2.2.2.2.3.2.2.1.2.2.2.2.2.1.2.2.2.1.2.2.2.1.2.3.2.1.2.2.2.2.3.2.2.2.2.2.2.1.2.2.2.2.2.2.2.3.4.2.2.2.2.1.2.1.2.2.2h.2l.1-.3v-6l-.1-.3v-.3l.1-.3V4.3l.2-.3h.4zm27.2 108.4l.3.3v1.8l-.1.3v.6l.1.3v.6l-.1.3.1.3v1.2l-.1.3v1.2l.1.3v.6l-.1.3v3.6l.1.3v1.2l-.1.3v1.5l-.1.3.1.3v.6l-.1.3v.3l-.2.3h-.5l-.5-.2-.2-.2-.1-.2-.2-.2-.1-.2-.2-.2-.1-.2-.3-.2-.1-.2-.2-.2-.2-.2-.2-.2-.1-.2-.1-.2-.3-.2-.1-.2-.1-.2-.2-.2-.2-.2-.1-.2-.2-.2-.1-.2-.2-.2-.5-1.2-.2-.2-.4-.4-.1-.2-.2-.2-.2-.2-.1-.2-.2-.3-.1-.2-.3-.2-.2-.2-.5-.7-.2-.2-.2-.2-.2-.2-.1-.2-.2-.2-.1-.3-.2-.2-.2-.2-.2-.2-.2-.2-.2-.3-.1-.2-.2-.3-.2-.2-.1-.2-.2-.2-.2-.2-.2-.2-.1-.2-.2-.2-.2-.2-.2-.2-.2-.2-.2-.2-.2-.9-.2-.2-.2-.2-.2.1v1.5l-.1.3v.3l.1.3v2.7l-.1.3v4.8l.1.3v1.7l-.1.3v.3l.1.3v.6l-.1.3v.6l.1.3-.3.3h-.6l-.3-.3v-.6l.1-.3-.1-.3.1-.3v-4.4l-.1-.3.1-.3V118l.1-.3-.1-.3v-.9l-.1-.3v-3l-.1-.3.1-.3.2-.3h.6l.4.2.2.2.2.2.1.2.2.2.2.2.2.3.1.2.2.2.2.2.2.2.1.2.2.2.2.2.2.2.1.3.2.2.2.2.1.2.2.2.2.3.2.2.1.2.2.2.1.2.2.2.2.2.2.2.2.2.2.2.2.2.2.2.2.2.1.2.2.2.2.2.2.2.2.3.2.2.1.2.1.3.2.2.1.2.2.2.1.2.2.2.1.2.2.2.1.2.2.2.2.2.2.2.1.2.2.2.2.2.1.3.1.2.3.2.1.2.2.3.2.2.2.2.1.3.2.2.2.3.2-.1V118l-.1-.3v-.9 1.2-.6l-.1-.3v-4.4l.2-.3h1.6zm18 16.7l-.2-.3v-.2l-.2-.3-.1-.3v-.3l-.1-.2-.2-.2v-.3l-.1-.3-.1-.2-.1-.3-.1-.3-.1-.2-.2-.3-.3-.3h-9.1l-.4.3-.2.2v.3l-.2.3-.1.3-.1.3-.1.3-.1.3v.2l-.1.3-.1.3v.2l-.2.3-.1.3-.1.2-.2.3-.4.2h-.7l-.2-.3.1-.3.1-.3.2-.2.1-.3.1-.3.1-.3.1-.3.2-.2.1-.3.1-.3.1-.3.1-.2.1-.3.2-.3.1-.3.1-.2.2-.3.1-.3.2-.3.1-.3.1-.3.1-.2.1-.3.1-.2v-.3l.1-.3.2-.3.1-.3.1-.2v-.3l.2-.3.1-.3.1-.3.1-.2.1-.3.1-.3.1-.3.1-.3v-.3l.2-.2.1-.3.1-.2v-.3l.1-.2.1-.3.2-.3.1-.2v-.3l.2-.3.1-.2.1-.3v-.3l.1-.3.1-.2.2-.3.1-.2.1-.3.2-.3v-.3l.2-.2v-.3l.2-.2.4-.3h.6l.4.3.1.3.2.3.1.3.1.3.1.2.1.3.1.2.1.2.1.3.2.3v.2l.2.3.1.3v.3l.1.2.1.3.1.2.1.3.1.2.2.3v.3l.2.3.2.5.1.3.1.3.1.2.2.3.1.3.1.3.2.2.1.3.1.2.1.3.1.2.1.3.2.5.1.2.1.3.3.5v.3l.2.3.1.2.1.3v.3l.1.3.2.2v.3l.2.2.1.3.1.3.1.3.1.2.1.3.1.2.2.5.1.3.2.3.1.3-.2.2h-.6l-.4-.3.4.2zm-10.5-5.2h7.6l.2-.3-.2-.3-.1-.2-.1-.3-.1-.3-.1-.3.1-.2-.1-.3-.1-.3-.3-.5-.1-.3-.1-.3v-.3l-.2-.2-.1-.3-.2-.3-.1-.2v-.3l-.1-.2-.1-.3-.3-.8-.1-.3-.2-.2-.1-.3v-.3l-.1-.3-.1-.3-.1-.3-.1-.2-.4-.2-.2-.3v-.3l-.1-.2h-.2l-.1.3-.1.3-.3.2-.1.2-.1.3-.1.2-.1.3-.1.2-.1.3-.3.5v.2l-.1.3-.1.3-.1.3-.1.2-.1.3-.1.3-.1.2-.1.3-.1.2-.1.3-.2.2v.3l-.1.3-.1.2-.1.3-.1.3-.2.2-.1.3-.2.3v.3l-.1.3-.1.3-.1.3.1.2-.1.2zm28.4-11.5h.2l.3.3v1.2l-.1.3v2.7l.1.3v2.1l-.1.3.1.3-.1.3.1.3v3.3l.1.3-.1.3v1.2l.1.3-.1.3v3l-.1.3-.2.3h-.6l-.4-.2-.2-.2-.2-.2-.2-.3-.1-.2-.2-.2-.2-.2-.1-.2-.2-.2-.1-.2-.2-.2-.2-.2-.2-.2-.2-.2-.1-.2-.2-.2-.2-.2-.2-.2-.1-.2-.2-.2-.2-.2-.2-.2-.1-.2-.2-.2-.2-.3-.1-.2-.2-.2-.1-.3-.2-.2-.1-.2-.2-.2-.2-.2-.2-.2-.2-.2-.2-.3-.1-.2-.2-.3-.1-.2-.2-.2-.2-.2-.1-.2-.2-.3-.3-.2-.1-.2-.2-.2-.2-.3-.1-.2-.2-.2-.2-.2-.1-.2-.2-.2-.1-.2-.2-.2-.2-.3-.1-.2-.2-.2-.1-.2-.2-.2-.1-.2-.2-.2-.1-.2-.2-.2-.1-.2-.2-.2-.2-.2-.1.1v2.7l.1.3v5.4l.1.3v2.1l.1.3v1.5l.1.3v2.1l-.3.3h-.5l-.3-.3V129l-.1-.3.1-.3-.1-.3v-.6l.1-.3V126l-.1-.3v-5.6l-.1-.3.1-.3v-.3l-.1-.3v-1.8l.1-.3-.1-.3.1-.3v-2.7l.1-.3v-.5l.3-.3h.5l.4.2.2.2.1.2.2.3.2.2.1.2.1.2.2.2.1.2.1.2.2.2.2.2.1.2.2.2.2.2.2.2.1.2.2.2.3.2.1.2.2.2.2.2.1.2.2.2.1.2.2.2.1.2.2.2.3.3.2.2.1.2.2.2.1.2.2.2.2.2.1.2.2.2.2.3.2.2.1.2.2.2.2.2.1.2.2.2.1.2.2.2.1.2.3.2.1.2.2.2.2.3.2.2.2.2.2.2.1.2.2.2.2.2.2.2.3.5.2.2.2.2.1.2.1.2.2.2h.2l.1-.3v-1.8 1.2-3.9l-.1-.3v-.3l.1-.3v-7.5l.2-.3h-.1zm17.7.6l-.1.2-.3.3h-5.7l-.3.3.1.3-.1.3v2.1l.1.3v2.1l-.1.3v1.1l-.1.3v6.9l.1.3v.3l-.1.3.1.3-.1.3v.6l-.2.3h-.7l-.2-.3v-3.2l-.1-.3v-.3l.1-.2v-.6l-.1-.3v-1.5l.1-.2-.1-.3v-3.6l-.1-.3v-3.6l-.1-.3v-1.2l-.3-.3H351l-.3-.3v-.6l.3-.3h12.7l.2.3v.5zm5 15.5h9.9l.3.3v.3l-.1.3-.3.3h-11.4l-.2-.3v-2.1l.1-.3v-.3l-.1-.3v-.4l.1-.3v-2.4l.1-.3v-3l.1-.3v-.6l.1-.3v-1.4l-.1-.3.1-.3-.1-.3v-.3l.1-.3-.1-.3v-1.8l.1-.3v-.5l-.1-.3.3-.3h11.1l.3.2v.6l-.4.3h-10l-.3.3v3.6l.1.3v2.1l.3.3h9.6l.3.3v.5l-.2.3h-9.6l-.3.3v6.6l.3.3v.1zm19.4 1.4h-1l-.3-.1h-.2l-.3-.1-.3-.1h-.2l-.4-.1-.2-.1-.3-.1-.2-.1-.3-.1-.3-.1-.2-.1-.3-.1-.2-.1-.3-.1-.2-.2-.2-.2-.2-.2v-.4l.1-.3.1-.2.3-.1.5.4.2.2.2.1.3.1.3.1.2.1.3.1.2.1.2.1.3.1.3.1.3.1.3.1.3.1h4l.3-.1.2-.1h.3l.3-.1.3-.1.2-.1.2-.1.2-.2.3-.2.2-.1.2-.2.2-.2.1-.2.1-.3.1-.3.1-.3V125l-.1-.3v-.6l-.1-.3-.2-.2-.2-.2-.2-.2-.2-.2-.2-.1-.4-.3-.3-.1-.3-.1-.2-.1-.3-.1-.3-.1-.2-.1h-.3l-.3-.1H388l-.3-.1h-.3l-.2-.1-.3-.1-.3-.1-.3-.1-.2-.1-.3-.1-.2-.2-.3-.1-.3-.1-.5-.4-.1-.2-.2-.2-.1-.2-.1-.3-.1-.3-.1-.2-.1-.3-.1-.3v-.6l-.1-.6v-.3l.1-.2.1-.3.1-.3.1-.3.1-.2.2-.2.1-.2.2-.2.2-.2.2-.2.1-.2.3-.2.2-.1.2-.1.3-.1.2-.1.2-.1.3-.1.3-.1.5-.1.3-.1h.2l.3-.1h3.2l.2.1h.3l.8.2.6.1.3.1.2.1.3.1.2.1.3.1.2.1.3.1.3.1.1.4-.1.2-.1.2-.4.1-.5-.2-.5-.2-.3-.1-.3-.1-.3-.1-.3-.1-.3-.1h-.3l-.2-.1h-.4l-.6-.1h-2.7l-.5.1-.3.1h-.3l-.3.1-.2.1-.3.1-.3.1-.3.1-.3.1-.2.2-.2.2-.3.2-.2.2-.1.2-.1.2-.1.3v1.5l.1.3.1.3v.2l.1.2.1.3.2.2.2.2.2.2.3.2.3.1.3.1.2.1h.3l.6.2.3.1h3.2l.3.1h.3l.3.1h.2l.3.1.3.1h.3l.3.1.3.1.3.1.3.1.2.1.3.2.5.3.2.2.1.2.2.2.1.2.2.2.1.2v.3l.1.2.1.3.1.2v2.1l-.1.3-.1.3-.1.3-.2.2-.3.5-.2.2-.1.2-.3.2-.4.3-.3.1-.2.1-.3.1-.2.1-.2.1-.3.1-.3.1-.5.1h-.3l-.3.1h-2.2l-.1.1zm19-1.4h9.4l.3.3-.1.2v.3l-.3.3h-10.7l-.3-.3v-.3l.1-.6.1-.3.1-.3.1-.2.2-.3.1-.2.2-.3.1-.2.2-.3.2-.2.1-.3.2-.2.1-.2.2-.2.2-.2.2-.2.2-.2.2-.2.2-.2.2-.2.5-.4.4-.3.2-.2.3-.2.2-.2.2-.1.2-.1.5-.3.3-.2.2-.2.2-.1.3-.2.3-.2.2-.2.3-.1.2-.2.1-.2.3-.2.2-.2.2-.2.3-.2.2-.2.1-.2.2-.2.2-.2.1-.2.1-.3.1-.2.1-.3.1-.3v-.3l.1-.3v-.9l-.1-.3-.1-.2v-.3l-.2-.3-.1-.2-.2-.2-.1-.2-.2-.2-.2-.2-.2-.1-.3-.1-.3-.1-.3-.1-.3-.1h-2.8l-.3.1h-.7l-.3.1-.2.1h-.3l-.3.1-.3.1-.2.1-.3.1-.2.1-.3.1-.2.1-.2-.2v-.6l.3-.4.2-.1.3-.1.2-.1.3-.1.3-.1.2-.1.3-.1h.6l.2-.1h.3l.4-.1h2.8l.5.1h.3l.3.1h.2l.3.1.3.1.2.1.3.1.2.2.2.2.2.2.2.2.1.3.2.2.1.2.1.3v.3l.1.3.1.3.1.3v.3l-.1.6v.3l-.1.3v.3l-.1.3-.1.2-.1.3-.1.2-.2.2-.1.2-.2.2-.2.2-.2.2-.2.2-.2.2-.2.2-.2.2-.2.2-.2.2-.2.2-.3.1-.1.2-.3.2-.3.1-.2.2-.2.2-.2.2-.2.1-.3.2-.2.1-.2.2-.2.2-.3.1-.2.2-.3.2-.2.1-.2.2-.3.2-.2.2-.2.2-.3.2-.1.2-.2.2-.3.2-.1.2-.2.2-.2.2-.2.2-.1.3-.1.2-.2.3-.1.2-.2.2-.2.3.1.3.3.4zm18.7 1.4h-.8l-.4-.1-.2-.1-.3-.1-.2-.1-.3-.1-.2-.1-.3-.1-.2-.2-.2-.1-.2-.2-.1-.2-.3-.2-.1-.2-.2-.2-.2-.2-.1-.2-.1-.3-.2-.3-.1-.2-.2-.3-.1-.3-.1-.3v-.3l-.1-.3-.1-.3v-.6l-.1-.3v-4.8l.1-.3.1-.3v-.9l.1-.3v-.3l.1-.3.1-.3.1-.3v-.2l.1-.3.1-.3.1-.3.1-.3.2-.2.2-.2.1-.2.2-.2.2-.2.2-.2.2-.2.2-.1.2-.2.2-.2.3-.1.3-.1.5-.2.3-.1.3-.1h.3l.3-.1h1.7l.3.1h.2l.3.1.3.1.2.1.3.1.2.1.2.2.3.1.2.1.3.2.2.2.2.2.1.2.2.2.2.2.2.2.2.2.1.2.2.3v.2l.1.3.1.3v.3l.2.3v.3l.1.3v.3l.1.3v.9l.1.3v1.5l.1.6v.6l-.1.3v.3l-.1.3v.6l-.1.3v.5l-.1.3-.1.3-.1.3v.3l-.2.2-.1.3-.1.3-.2.2-.1.3-.1.3-.1.2-.2.2-.1.2-.2.2-.2.2-.2.2-.3.2-.2.2-.2.2-.2.1-.2.2-.2.1-.3.1-.3.1-.3.1-.2.1h-.3l-.3.1h-1.3zm1.4-1.1l.3-.1.3-.1.3-.1.2-.1.2-.1.3-.1.2-.2.2-.1.3-.2.1-.2.4-.4.1-.3.2-.2.1-.2.2-.3.1-.3.1-.2.1-.3.1-.3.1-.3v-.3l.1-.3.1-.3.1-.3v-1.8l.1-.3v-1.5l-.1-.3v-.6l-.1-.3v-.3l-.1-.3v-.3l-.1-.3v-.3l-.1-.3-.1-.3-.1-.2-.1-.3-.2-.3-.1-.3-.1-.2-.2-.2-.2-.2-.4-.4-.2-.2-.2-.2-.2-.1-.3-.2-.2-.1-.3-.1-.3-.1-.2-.1h-2.3l-.3.1-.3.1-.3.1-.3.1-.2.1-.3.2-.2.2-.3.2-.1.2-.2.2-.2.2-.2.2-.1.2-.1.3-.3.2-.2.3-.1.3v.3l-.1.3-.1.3-.1.3v.3l-.1.3-.1.3v1.5l-.1.3v.9l.1.3v1.5l.1.3v.6l.1.3.1.3v.3l.1.2.1.3.2.3.1.2.1.3.1.3.1.2.2.3.2.2.2.2.2.2.3.2.2.2.2.2.3.1.5.2.3.1.3.1h2.1zm12.8-.2h2.9l.3.2v.5l-.2.3h-8l-.3-.3v-.5l.3-.3h2.8l.3-.3v-.6l.1-.3-.1-.9v-4.7l-.1-.3v-1.5l.1-.3v-.9l-.1-.3v-4.5l-.3-.2-.3.1-.2.1-.3.1-.3.1-.3.1-.3.1-.3.1-.2.1-.3.1h-.3l-.4-.1v-.5l.3-.4.9-.3.2-.1.3-.1.3-.1.2-.1.3-.1.3-.1.3-.1.3-.1.2-.1.7-.1.3.3v.9l.1.3v1.2l-.1.3v1.5l.1.3-.1.3.1.3v2.4l.1.3-.1.3v1.5l.1.3v6l.3.3.4-.2zm14.7-8.1l.3.1.2.1.6.3.2.2.3.2.2.2.4.4.2.2.1.3.1.3.1.2v.3l.1.3v.3l.1.3v1.5l-.1.3-.1.3v.2l-.1.3-.1.3-.2.3-.2.2-.1.2-.2.2-.2.2-.2.2-.5.3-.2.1-.3.1-.2.1-.3.1-.3.1-.3.1-.3.1-.3.1-.3.1h-3.3l-.3-.1h-.2l-.3-.1-.6-.2-.3-.1-.2-.1-.3-.1-.2-.1-.3-.2-.2-.2-.2-.1-.2-.2-.2-.2-.3-.2-.1-.2-.2-.2-.1-.3-.2-.2-.1-.3-.1-.3-.1-.3-.1-.6v-1.5l.1-.3v-.2l.2-.3v-.3l.2-.3.1-.2.1-.3.2-.2.2-.2.2-.2.2-.2.3-.2.2-.1.3-.1.2-.2.3-.1.2-.1.1-.2-.3-.1-.2-.1-.2-.1-.2-.1-.2-.2-.2-.2-.2-.2-.2-.2-.2-.2-.1-.3-.2-.2-.1-.3-.1-.2-.1-.3v-.4l-.1-.3v-.9l.1-.3v-.3l.1-.3.1-.2.2-.3.1-.2.1-.2.3-.2.1-.2.3-.1.2-.2.2-.1.3-.1.3-.1.2-.1.3-.1.2-.1.3-.1.3-.1.6-.1h.3l.3-.1h2.8l.3.1h.3l.2.1.3.1.3.1.2.1.3.1.3.2.2.2.2.2.2.2.3.2.2.2.2.3.1.2.2.3.1.3.1.3v.3l.1.3v.6l-.1.3v.3l-.1.3-.1.3-.1.2-.1.2-.2.2-.2.3-.2.2-.1.2-.3.2-.3.2-.2.1-.3.1-.2.1-.2.1v.2l.1.3zm-2.9 8.3h1.2l.3-.1.3-.1.3-.1.3-.1.2-.1.3-.1.2-.2.3-.2.2-.2.2-.2.2-.2.2-.3.1-.2.1-.2.1-.3.1-.3v-1.8l-.1-.3-.1-.3-.1-.2-.2-.2-.1-.3-.2-.2-.2-.2-.3-.2-.2-.2-.2-.2-.3-.1-.3-.1-.3-.1-.3-.1-.3-.1-.2-.1h-3.8l-.3.1-.3.1-.2.1-.2.1-.3.1-.2.1-.3.2-.3.2-.2.2-.2.2-.1.2-.2.2-.1.2-.1.3-.1.2-.1.3v1.3l.1.3v.3l.1.3.2.2.2.2.1.2.2.2.2.2.2.2.2.2.2.1.3.1.2.1.3.1.2.1.2.1.3.1.3.1h2.3zm-5.5-11.8l.1.3v.2l.1.3.1.2.2.3.1.2.2.2.2.1.3.1.2.2.3.1.3.1.3.1.3.1h.2l.3.1h2.4l.6-.1h.3l.3-.1.3-.1.6-.2.3-.1.2-.1.3-.2.2-.2.2-.2.1-.2.1-.3.2-.3v-.3l.1-.3v-1.2l-.1-.3-.1-.2-.1-.3-.1-.2-.2-.2-.2-.2-.1-.2-.3-.2-.2-.1-.2-.1-.3-.1-.2-.1-.3-.1h-3l-.3.1h-.6l-.2.1h-.3l-.3.1-.3.1-.3.1-.2.1-.3.1-.2.2-.2.2-.1.2-.2.2-.2.2-.1.3v.3l-.1.3v1z"/><path class="st2" d="M469.7 107.9h9.7v22h-9.7z"/><path class="st3" d="M479.4 107.9h9.7v22h-9.7z"/><path class="st4" d="M489 107.9h9.7v22H489z"/><path class="st5" d="M48.7 91.3l13.2 14.1L47.5 129H26z"/><path class="st6" d="M34.3 75.9l14.4 15.4L26 129H2z"/><path class="st7" d="M51.4 86.9l10.5 18.5-13.2-14.1z"/><path class="st8" d="M40 66.6l11.4 20.3-2.7 4.4-14.4-15.4z"/><path class="st4" d="M81.7 62.4c1.8 3.4 1.7 7.5-.3 10.8l-8 13.2-44.8-82H50l31.7 58z"/><path class="st2" d="M28.6 4.3l44.8 82.1-11.5 19-10.5-18.5L40 66.6 5.2 4.3z"/><head xmlns=""/></svg>